<?xml version="1.0" encoding="UTF-8"?>
<svg width="65px" height="65px" viewBox="0 0 65 65" version="1.1" xmlns="http://www.w3.org/2000/svg" xmlns:xlink="http://www.w3.org/1999/xlink">
    <title>播放圆</title>
    <g id="页面-1" stroke="none" stroke-width="1" fill="none" fill-rule="evenodd">
        <g id="关于比亚迪" transform="translate(-328.000000, -286.000000)" fill="#FFFFFF" fill-rule="nonzero">
            <g id="播放圆" transform="translate(328.000000, 286.000000)">
                <path d="M32.0512516,0.0512515 C14.3781395,0.0512515 0.0512515625,14.3781396 0.0512515625,32.0512515 C0.0512515625,49.7243635 14.3781396,64.0512515 32.0512516,64.0512515 C49.7243636,64.0512515 64.0512516,49.7243635 64.0512516,32.0512515 C64.0512516,23.5643238 60.6798327,15.4249986 54.6786685,9.42383448 C48.6775044,3.42267037 40.5381792,0.0512515 32.0512516,0.0512515 Z M32.0512516,61.0512515 C16.0349938,61.0512515 3.05125156,48.0675092 3.05125156,32.0512515 C3.05125156,16.0349938 16.0349938,3.0512515 32.0512516,3.0512515 C48.0675093,3.0512515 61.0512516,16.0349938 61.0512516,32.0512515 C61.0512516,39.7425297 57.9959032,47.1187932 52.5573482,52.5573482 C47.1187932,57.9959031 39.7425298,61.0512515 32.0512516,61.0512515 Z M43.5544094,30.367041 L35.2512515,25.5165147 L26.4259883,20.3628305 C25.8944796,20.1112931 25.2673444,20.1750661 24.7973494,20.5284459 C24.3273543,20.8818256 24.0919393,21.4665865 24.1859884,22.0470409 L24.1859884,41.9544094 C24.0919393,42.5348639 24.3273543,43.1196248 24.7973493,43.4730045 C25.2673444,43.8263843 25.8944796,43.8901573 26.4259883,43.6386199 L35.2512515,38.4849357 L43.5544094,33.6512515 C44.1048008,33.2861632 44.4356864,32.6696159 44.4356864,32.0091463 C44.4356864,31.3486766 44.1048008,30.7321293 43.5544094,30.367041 L43.5544094,30.367041 Z" id="形状"></path>
            </g>
        </g>
    </g>
</svg>