<?xml version="1.0" encoding="UTF-8"?>
<svg width="32px" height="32px" viewBox="0 0 32 32" version="1.1" xmlns="http://www.w3.org/2000/svg" xmlns:xlink="http://www.w3.org/1999/xlink">
    <title>Close</title>
    <g id="视频弹窗" stroke="none" stroke-width="1" fill="none" fill-rule="evenodd">
        <g id="byd-pc_视频弹窗02暂停" transform="translate(-1858.000000, -130.000000)">
            <g id="Close" transform="translate(1858.000000, 130.000000)">
                <circle id="椭圆形" stroke="#FFFFFF" cx="16" cy="16" r="15.5"></circle>
                <path d="M16.7741494,15.9999322 L20.8458075,11.9267525 C21.0513975,11.7210788 21.0513975,11.3821786 20.8458075,11.1765049 L20.8235669,11.1542552 C20.6179769,10.9485816 20.2792145,10.9485816 20.0736245,11.1542552 L16.0019664,15.233133 L11.9304439,11.1542552 C11.7248539,10.9485816 11.3860915,10.9485816 11.1805015,11.1542552 L11.1582609,11.1765049 C10.9472464,11.3821786 10.9472464,11.7210788 11.1582609,11.9267525 L15.229919,16.0000678 L11.1582609,20.0732475 C10.9528065,20.2789212 10.9528065,20.6178214 11.1582609,20.8234951 L11.1805015,20.8457448 C11.3860915,21.0514184 11.7248539,21.0514184 11.9304439,20.8457448 L16.0019664,16.7724294 L20.0736245,20.8456091 C20.2792145,21.0512827 20.6179769,21.0512827 20.8235669,20.8456091 L20.8458075,20.8233594 C21.0513975,20.6176858 21.0513975,20.2787855 20.8458075,20.0731118 L16.7741494,15.9999322 Z" id="路径" fill="#FFFFFF" fill-rule="nonzero"></path>
            </g>
        </g>
    </g>
</svg>