<?xml version="1.0" encoding="UTF-8"?><svg id="Capa_2" xmlns="http://www.w3.org/2000/svg" viewBox="0 0 300 52.11"><defs><style>.cls-1{fill:#fff;}</style></defs><g id="Capa_1-2"><path class="cls-1" d="M298.31,34.17c-1.96,2.21-4.57,3.45-7.36,3.47-.03,0-.05,0-.08,0-2.79,0-5.45-1.22-7.5-3.45l-1.69,2.89c2.57,2.45,5.79,3.8,9.19,3.8.03,0,.07,0,.1,0,3.38-.03,6.54-1.38,9.03-3.81l-1.69-2.9Z"/><path class="cls-1" d="M186.43,33.55h-3.26V6.46h10.03c4.27,0,7.74,3.47,7.74,7.74s-3.47,7.74-7.74,7.74h-6.77v11.62ZM186.43,18.67h6.77c2.47,0,4.48-2.01,4.48-4.48s-2.01-4.48-4.48-4.48h-6.77v8.95Z"/><path class="cls-1" d="M205.15,33.55h-3.26v-10.69c0-4.27,3.47-7.74,7.74-7.74v3.26c-2.47,0-4.48,2.01-4.48,4.48v10.69Z"/><path class="cls-1" d="M292.35,33.55h-3.26v-10.69c0-4.27,3.47-7.74,7.74-7.74v3.26c-2.47,0-4.48,2.01-4.48,4.48v10.69Z"/><path class="cls-1" d="M222.97,34.14h-3.58c-4.27,0-7.74-3.47-7.74-7.74v-3.55c0-4.27,3.47-7.74,7.74-7.74s7.74,3.47,7.74,7.74v3.41h-12.21v.15c0,2.47,2.01,4.48,4.48,4.48h3.58v3.26ZM214.91,23h8.95v-.15c0-2.47-2.01-4.48-4.48-4.48s-4.48,2.01-4.48,4.48v.15Z"/><path class="cls-1" d="M280.69,34.14h-3.58c-4.27,0-7.74-3.47-7.74-7.74v-3.55c0-4.27,3.47-7.74,7.74-7.74s7.74,3.47,7.74,7.74v3.41h-12.21v.15c0,2.47,2.01,4.48,4.48,4.48h5.49l-1.91,3.26ZM272.63,23h8.95v-.15c0-2.47-2.01-4.48-4.48-4.48s-4.48,2.01-4.48,4.48v.15Z"/><rect class="cls-1" x="261.87" y="15.74" width="3.26" height="17.8"/><path class="cls-1" d="M257.67,33.55h-3.26v-10.69c0-2.47-2.01-4.48-4.48-4.48s-4.48,2.01-4.48,4.48v10.69h-3.26v-10.69c0-2.47-2.01-4.48-4.48-4.48s-4.48,2.01-4.48,4.48v10.69h-3.26V15.74h3.26v.8c1.26-.9,2.81-1.43,4.48-1.43,2.48,0,4.69,1.17,6.11,2.99,1.42-1.82,3.63-2.99,6.11-2.99,4.27,0,7.74,3.47,7.74,7.74v10.69Z"/><rect class="cls-1" x="261.54" y="8.36" width="3.92" height="3.92" rx="1.35" ry="1.35"/><path class="cls-1" d="M185.04,44.07l-.67,1.52h-1.2l2.93-6.66h1.2l2.93,6.66h-1.2l-.67-1.52h-3.33ZM187.91,43.03l-1.21-2.74-1.21,2.74h2.42Z"/><path class="cls-1" d="M194.21,44.06c.31.36.72.53,1.24.53s.93-.18,1.24-.53c.3-.36.46-.84.46-1.45v-3.69h1.12v3.73c0,.96-.26,1.7-.79,2.21-.53.52-1.2.78-2.03.78s-1.5-.26-2.03-.78c-.53-.52-.79-1.26-.79-2.21v-3.73h1.12v3.69c0,.61.15,1.09.46,1.45Z"/><path class="cls-1" d="M204.26,39.95v5.63h-1.12v-5.63h-2.02v-1.03h5.16v1.03h-2.02Z"/><path class="cls-1" d="M214.61,44.66c-.67.66-1.51.99-2.5.99s-1.82-.33-2.5-.99c-.67-.66-1.01-1.48-1.01-2.46s.34-1.8,1.01-2.46,1.51-.99,2.5-.99,1.82.33,2.5.99c.67.66,1.01,1.48,1.01,2.46s-.34,1.8-1.01,2.46ZM213.79,40.5c-.45-.47-1.01-.71-1.67-.71s-1.22.24-1.67.71-.68,1.04-.68,1.71.23,1.24.68,1.71c.45.47,1.01.7,1.67.7s1.22-.23,1.67-.7c.45-.47.68-1.04.68-1.71s-.23-1.24-.68-1.71Z"/><path class="cls-1" d="M219.88,45.58h-1.12v-6.66h1.75l2.01,4.18,2.01-4.18h1.74v6.66h-1.12v-5.2l-2.32,4.62h-.63l-2.32-4.62v5.2Z"/><path class="cls-1" d="M235.41,44.66c-.67.66-1.51.99-2.5.99s-1.82-.33-2.5-.99c-.67-.66-1.01-1.48-1.01-2.46s.34-1.8,1.01-2.46,1.51-.99,2.5-.99,1.82.33,2.5.99,1.01,1.48,1.01,2.46-.34,1.8-1.01,2.46ZM234.58,40.5c-.45-.47-1.01-.71-1.67-.71s-1.22.24-1.67.71-.68,1.04-.68,1.71.23,1.24.68,1.71c.45.47,1.01.7,1.67.7s1.22-.23,1.67-.7c.45-.47.68-1.04.68-1.71s-.23-1.24-.68-1.71Z"/><path class="cls-1" d="M241.89,39.95v5.63h-1.12v-5.63h-2.02v-1.03h5.16v1.03h-2.02Z"/><path class="cls-1" d="M252.16,41.09c0,1.1-.48,1.79-1.44,2.08l1.74,2.42h-1.43l-1.59-2.24h-1.48v2.24h-1.12v-6.66h2.48c1.02,0,1.74.17,2.18.51.44.34.66.89.66,1.65ZM250.66,42.03c.23-.2.34-.51.34-.95s-.12-.73-.35-.9c-.24-.16-.65-.24-1.26-.24h-1.43v2.38h1.4c.64,0,1.07-.1,1.3-.3Z"/><path class="cls-1" d="M255.49,38.92h1.12v6.66h-1.12v-6.66Z"/><path class="cls-1" d="M263.58,39.95h-3.75v-1.03h5.32v.88l-3.87,4.72v.03h3.93v1.04h-5.5v-.87l3.88-4.74v-.03Z"/><rect class="cls-1" x="162.67" width="1.95" height="52.11"/><path class="cls-1" d="M41.76,16.1c-2.24-3.38-6.08-4.04-8.68-4.1-2.29-.05-12.2-.06-17.97-.07-11.37,0-4.87,0-15.11,0v5.43c12.16,0,26.59-.03,32.9.07,1.13.02,2.25.13,3.13.92.83.73,1.12,1.89.75,2.89-.6,1.62-2.24,2.02-3.88,2.05-2.5.04-9.38.05-14.52.06-12.59.02-7.14,0-18.39,0v5.41c12.15,0,26.61-.02,32.9.07,1.96.03,4.04.71,4.04,2.9s-2.07,2.9-4.04,2.93c-6.28.09-20.75.07-32.9.07v5.43c12.19,0,28.15.04,33.08-.07,2.6-.06,6.44-.72,8.68-4.1,2.1-3.17,1.59-7.3-1.17-9.95,2.76-2.65,3.27-6.78,1.17-9.95Z"/><path class="cls-1" d="M141,15.2c-3.71-2.66-7.74-3.04-11.01-3.11-3.22-.07-8.07-.11-12.37-.13-10.47-.04-4.17-.02-14.15-.02v5.45c10.61,0,18.05-.09,26.25.14,2.41.07,4.99.32,7.31,1.93,2.2,1.53,3.51,3.96,3.51,6.59s-1.27,5.07-3.47,6.6c-2.32,1.61-4.91,1.87-7.31,1.93-8.19.23-15.64.14-26.25.14l-.04,5.44c10.67,0,18.35.04,26.51-.15,3.27-.08,7.3-.45,11.01-3.11,3.52-2.52,5.65-6.49,5.65-10.85s-2.13-8.33-5.65-10.85Z"/><path class="cls-1" d="M59.62,24.13c-2.84-.05-3.75-.98-3.77-3.82-.02-2.62,0-5.72,0-8.38h-6.27c0,2.69-.05,8.13.05,10.75.2,5.11,1.88,6.7,7.1,6.88,3.62.12,6.49.08,11.49.08v-5.47c-4.01,0-5.64.01-8.6-.04Z"/><path class="cls-1" d="M90.7,20.41c-.02,2.76-.92,3.66-3.77,3.72-1.36.03-4.93.04-7.87.05h0s-.02,0-.03,0h0c-3,0-6.21,0-8.09,0v16h7.37v-10.53c.22,0,.47,0,.72,0h0s.02,0,.03,0h0c3.83,0,8.62-.01,10.43-.07,5.54-.17,7.23-1.73,7.43-6.89.03-.69.04-1.56.05-2.52v-8.24h-6.27c0,2.72.01,5.78,0,8.47Z"/></g></svg>